<svg viewBox="0 0 44 20" fill="none" xmlns="http://www.w3.org/2000/svg">
<title>Cloudflare</title>
<path d="M39.3337 9.63628L34.2937 8.45446L33.3937 8.09082L10.2637 8.27264V19.5454L39.3337 19.6363V9.63628Z" fill="white" style="fill:white;fill-opacity:1;"/>
<path d="M29.8836 18.5455C30.0284 18.1583 30.0795 17.7417 30.0325 17.3306C29.9856 16.9194 29.8419 16.5255 29.6136 16.1818C29.3791 15.8978 29.0915 15.6633 28.7672 15.4918C28.4429 15.3202 28.0883 15.2148 27.7236 15.1818L12.0636 15C11.9736 15 11.8836 14.9091 11.7936 14.9091C11.7727 14.8932 11.7557 14.8726 11.7439 14.849C11.7322 14.8253 11.7261 14.7992 11.7261 14.7727C11.7261 14.7463 11.7322 14.7202 11.7439 14.6965C11.7557 14.6728 11.7727 14.6523 11.7936 14.6364C11.8836 14.4546 11.9736 14.3637 12.1536 14.3637L27.9036 14.1818C28.9035 14.0697 29.8558 13.6906 30.6625 13.0835C31.4693 12.4763 32.1013 11.663 32.4936 10.7273L33.3936 8.36365C33.3936 8.27274 33.4836 8.18183 33.3936 8.09092C32.9043 5.88949 31.717 3.90956 30.0119 2.45201C28.3069 0.994464 26.1774 0.138969 23.9471 0.0155244C21.7168 -0.10792 19.5075 0.507436 17.655 1.76808C15.8026 3.02873 14.4081 4.86576 13.6836 7.00001C12.7431 6.3215 11.5959 5.99961 10.4436 6.09092C9.3862 6.21002 8.40032 6.68888 7.64797 7.44883C6.89562 8.20879 6.42154 9.20463 6.30364 10.2727C6.24371 10.8195 6.27412 11.3724 6.39363 11.9091C4.68268 11.9569 3.05769 12.6771 1.86433 13.9164C0.67096 15.1558 0.00339715 16.8166 0.00363585 18.5455C-0.0111337 18.8814 0.0191393 19.2178 0.0936345 19.5455C0.0977672 19.6164 0.127542 19.6834 0.177309 19.7337C0.227076 19.7839 0.293377 19.814 0.363637 19.8182H29.2536C29.4336 19.8182 29.6136 19.7273 29.6136 19.5455L29.8836 18.5455Z" fill="#F48120" style="fill:#F48120;fill:color(display-p3 0.9569 0.5059 0.1255);fill-opacity:1;"/>
<path d="M34.8335 8.36377H34.3835C34.2935 8.36377 34.2035 8.45468 34.1135 8.54559L33.4835 10.7274C33.3387 11.1146 33.2877 11.5311 33.3346 11.9423C33.3816 12.3535 33.5252 12.7473 33.7535 13.091C33.988 13.375 34.2756 13.6095 34.5999 13.7811C34.9242 13.9527 35.2789 14.058 35.6435 14.091L38.9735 14.2729C39.0635 14.2729 39.1535 14.3638 39.2435 14.3638C39.2645 14.3796 39.2815 14.4002 39.2932 14.4239C39.3049 14.4476 39.311 14.4737 39.311 14.5001C39.311 14.5266 39.3049 14.5527 39.2932 14.5764C39.2815 14.6 39.2645 14.6206 39.2435 14.6365C39.1535 14.8183 39.0635 14.9092 38.8835 14.9092L35.4635 15.091C34.4636 15.2031 33.5113 15.5823 32.7046 16.1894C31.8979 16.7966 31.2658 17.6098 30.8735 18.5456L30.6935 19.3638C30.6035 19.4547 30.6935 19.6365 30.8735 19.6365H42.7535C42.7902 19.6418 42.8276 19.6384 42.8627 19.6265C42.8979 19.6147 42.9298 19.5948 42.956 19.5683C42.9822 19.5419 43.0019 19.5096 43.0137 19.4741C43.0254 19.4386 43.0288 19.4008 43.0235 19.3638C43.2378 18.5935 43.3587 17.7998 43.3835 17.0001C43.3692 14.7141 42.4639 12.5257 40.8635 10.9092C39.2632 9.29271 37.0967 8.37818 34.8335 8.36377Z" fill="#FAAD3F" style="fill:#FAAD3F;fill:color(display-p3 0.9804 0.6784 0.2471);fill-opacity:1;"/>
</svg>
