<svg width="50" height="22" viewBox="0 0 50 22" fill="none" xmlns="http://www.w3.org/2000/svg">
<g clip-path="url(#clip0_1_88)">
<path d="M44.7 10.6L39.1 9.30002L38.1 8.90002L12.4 9.10003V21.5L44.7 21.6V10.6Z" fill="white" style="fill:white;fill-opacity:1;"/>
<path d="M34.2 20.4C34.3609 19.9741 34.4176 19.5159 34.3654 19.0636C34.3133 18.6113 34.1537 18.1781 33.9 17.8C33.6395 17.4876 33.3199 17.2297 32.9595 17.0409C32.5992 16.8522 32.2052 16.7363 31.8 16.7L14.4 16.5C14.3 16.5 14.2 16.4 14.1 16.4C14.0767 16.3825 14.0578 16.3599 14.0448 16.3339C14.0318 16.3078 14.025 16.2791 14.025 16.25C14.025 16.2209 14.0318 16.1922 14.0448 16.1662C14.0578 16.1401 14.0767 16.1175 14.1 16.1C14.2 15.9 14.3 15.8 14.5 15.8L32 15.6C33.111 15.4767 34.1691 15.0597 35.0655 14.3918C35.9618 13.7239 36.6641 12.8293 37.1 11.8L38.1 9.20002C38.1 9.10002 38.2 9.00001 38.1 8.90001C37.5563 6.47843 36.237 4.30052 34.3426 2.69721C32.4481 1.09391 30.082 0.152865 27.6039 0.0170769C25.1257 -0.118712 22.671 0.558179 20.6127 1.94489C18.5544 3.33161 17.005 5.35233 16.2 7.70002C15.155 6.95365 13.8803 6.59957 12.6 6.70002C11.4251 6.83102 10.3297 7.35777 9.49371 8.19372C8.65777 9.02966 8.13102 10.1251 8.00001 11.3C7.93343 11.9014 7.96722 12.5097 8.10001 13.1C6.19895 13.1526 4.3934 13.9448 3.06744 15.3081C1.74148 16.6714 0.999746 18.4982 1.00001 20.4C0.983601 20.7695 1.01724 21.1395 1.10001 21.5C1.1046 21.5781 1.13769 21.6517 1.19298 21.707C1.24828 21.7623 1.32195 21.7954 1.40001 21.8H33.5C33.7 21.8 33.9 21.7 33.9 21.5L34.2 20.4Z" fill="#F48120" style="fill:#F48120;fill:color(display-p3 0.9569 0.5059 0.1255);fill-opacity:1;"/>
<path d="M39.7 9.19995H39.2C39.1 9.19995 39 9.29995 38.9 9.39995L38.2 11.8C38.0391 12.2259 37.9824 12.6841 38.0346 13.1363C38.0868 13.5886 38.2464 14.0219 38.5 14.4C38.7606 14.7123 39.0802 14.9703 39.4405 15.159C39.8008 15.3478 40.1949 15.4636 40.6 15.5L44.3 15.7C44.4 15.7 44.5 15.8 44.6 15.8C44.6233 15.8174 44.6422 15.8401 44.6552 15.8661C44.6682 15.8921 44.675 15.9208 44.675 15.95C44.675 15.9791 44.6682 16.0078 44.6552 16.0338C44.6422 16.0598 44.6233 16.0825 44.6 16.1C44.5 16.3 44.4 16.4 44.2 16.4L40.4 16.6C39.289 16.7232 38.2309 17.1403 37.3346 17.8082C36.4382 18.476 35.736 19.3706 35.3 20.4L35.1 21.3C35 21.4 35.1 21.6 35.3 21.6H48.5C48.5408 21.6058 48.5823 21.602 48.6214 21.589C48.6604 21.576 48.6959 21.5541 48.725 21.5249C48.7541 21.4958 48.7761 21.4604 48.7891 21.4213C48.8021 21.3822 48.8058 21.3407 48.8 21.3C49.0381 20.4527 49.1724 19.5796 49.2 18.7C49.1842 16.1853 48.1782 13.7781 46.4 12C44.6219 10.2218 42.2147 9.2158 39.7 9.19995Z" fill="#FAAD3F" style="fill:#FAAD3F;fill:color(display-p3 0.9804 0.6784 0.2471);fill-opacity:1;"/>
</g>
<defs>
<clipPath id="clip0_1_88">
<rect width="50" height="22" fill="white" style="fill:white;fill-opacity:1;"/>
</clipPath>
</defs>
</svg>
