<svg width="31" height="27" viewBox="0 0 31 27" fill="none" xmlns="http://www.w3.org/2000/svg">
<path fill-rule="evenodd" clip-rule="evenodd" d="M11.909 26.313H5.28805C4.7293 26.313 4.29834 25.8821 4.29834 25.3233V22.913C4.29834 22.3542 3.86743 21.9269 3.30868 21.9269H0.989707C0.43096 21.9269 0 21.496 0 20.9372V5.37216C0 4.8134 0.43096 4.38247 0.989707 4.38247H3.30868C3.86743 4.38247 4.29834 3.95515 4.29834 3.39639V0.986042C4.29834 0.427273 4.7293 0 5.28805 0H11.909C12.4678 0 12.8987 0.427273 12.8987 0.986042V3.39639C12.8987 3.95515 13.326 4.38247 13.8884 4.38247H16.2073C16.7661 4.38247 17.197 3.95515 17.197 3.39639V0.986042C17.197 0.427273 17.6279 0 18.1867 0H24.8077C25.3664 0 25.7973 0.427273 25.7973 0.986042V3.39639C25.7973 3.95515 26.2246 4.38247 26.7834 4.38247H29.106C29.6648 4.38247 30.0957 4.8134 30.0957 5.37216V20.9372C30.0957 21.496 29.6648 21.9269 29.106 21.9269H26.7834C26.2246 21.9269 25.7973 22.3542 25.7973 22.913V25.3233C25.7973 25.8821 25.3664 26.313 24.8077 26.313H18.1867C17.6279 26.313 17.197 25.8821 17.197 25.3233V22.913C17.197 22.3542 16.7661 21.9269 16.2073 21.9269H13.8884C13.326 21.9269 12.8987 22.3542 12.8987 22.913V25.3233C12.8987 25.8821 12.4678 26.313 11.909 26.313ZM11.909 4.38247H5.28805C4.7293 4.38247 4.29834 4.8134 4.29834 5.37216V12.2563L6.66114 11.1826L7.91743 8.42162C8.19133 7.80442 9.07512 7.80442 9.35267 8.42162L10.6089 11.1826L12.8987 12.2234V5.37216C12.8987 4.8134 12.4678 4.38247 11.909 4.38247ZM4.29834 14.0531V20.9372C4.29834 21.496 4.7293 21.9269 5.28805 21.9269H11.909C12.4678 21.9269 12.8987 21.496 12.8987 20.9372V14.0859L10.6089 15.1268L9.35267 17.8877C9.07512 18.5049 8.20228 18.5049 7.91743 17.8877L6.66114 15.1268L4.29834 14.0531ZM24.8077 4.38247H18.1867C17.6279 4.38247 17.197 4.8134 17.197 5.37216V12.2161L19.4758 11.1826L20.7284 8.42162C21.006 7.80442 21.8898 7.80442 22.1637 8.42162L23.4199 11.1826L25.7973 12.2599V5.37216C25.7973 4.8134 25.3664 4.38247 24.8077 4.38247ZM18.1867 21.9269H24.8077C25.3664 21.9269 25.7973 21.496 25.7973 20.9372V14.0494L23.4199 15.1268L22.1637 17.8877C21.8898 18.5049 21.0133 18.5049 20.7284 17.8877L19.4758 15.1268L17.197 14.0933V20.9372C17.197 21.496 17.6279 21.9269 18.1867 21.9269Z" fill="#4D196C" style="fill:#4D196C;fill:color(display-p3 0.3020 0.0980 0.4235);fill-opacity:1;"/>
</svg>
