<svg viewBox="0 0 14 20" fill="none" xmlns="http://www.w3.org/2000/svg">
<title>Figma</title>
<mask id="mask0_8692_22464" style="mask-type:luminance" maskUnits="userSpaceOnUse" x="0" y="0" width="14" height="20">
<path d="M13.077 0H0V20H13.077V0Z" fill="white" style="fill:white;fill-opacity:1;"/>
</mask>
<g mask="url(#mask0_8692_22464)">
<path d="M6.53809 10.0013C6.53809 9.11722 6.88252 8.2694 7.49562 7.64428C8.10872 7.01916 8.94024 6.66797 9.80735 6.66797C10.6744 6.66797 11.5059 7.01916 12.119 7.64428C12.7321 8.2694 13.0765 9.11722 13.0765 10.0013C13.0765 10.8854 12.7321 11.7332 12.119 12.3583C11.5059 12.9834 10.6744 13.3346 9.80735 13.3346C8.94024 13.3346 8.10872 12.9834 7.49562 12.3583C6.88252 11.7332 6.53809 10.8854 6.53809 10.0013Z" fill="#1ABCFE" style="fill:#1ABCFE;fill:color(display-p3 0.1020 0.7373 0.9961);fill-opacity:1;"/>
<path d="M0 16.6653C0 15.7814 0.34444 14.9335 0.957533 14.3084C1.57064 13.6832 2.40218 13.332 3.26923 13.332H6.53846V16.6653C6.53846 17.5494 6.19402 18.3973 5.58093 19.0224C4.96782 19.6476 4.13628 19.9988 3.26923 19.9988C2.40218 19.9988 1.57064 19.6476 0.957533 19.0224C0.34444 18.3973 0 17.5494 0 16.6653Z" fill="#0ACF83" style="fill:#0ACF83;fill:color(display-p3 0.0392 0.8118 0.5137);fill-opacity:1;"/>
<path d="M6.53809 0V6.66666H9.80735C10.6744 6.66666 11.5059 6.31547 12.119 5.69035C12.7321 5.06524 13.0765 4.21739 13.0765 3.33333C13.0765 2.44928 12.7321 1.60143 12.119 0.976311C11.5059 0.351185 10.6744 0 9.80735 0H6.53809Z" fill="#FF7262" style="fill:#FF7262;fill:color(display-p3 1.0000 0.4471 0.3843);fill-opacity:1;"/>
<path d="M0 3.33333C0 4.21739 0.34444 5.06524 0.957533 5.69035C1.57064 6.31547 2.40218 6.66666 3.26923 6.66666H6.53846V0H3.26923C2.40218 0 1.57064 0.351185 0.957533 0.976311C0.34444 1.60143 0 2.44928 0 3.33333Z" fill="#F24E1E" style="fill:#F24E1E;fill:color(display-p3 0.9490 0.3059 0.1176);fill-opacity:1;"/>
<path d="M0 10.0013C0 10.8854 0.34444 11.7332 0.957533 12.3583C1.57064 12.9834 2.40218 13.3346 3.26923 13.3346H6.53846V6.66797H3.26923C2.40218 6.66797 1.57064 7.01916 0.957533 7.64428C0.34444 8.2694 0 9.11722 0 10.0013Z" fill="#A259FF" style="fill:#A259FF;fill:color(display-p3 0.6353 0.3490 1.0000);fill-opacity:1;"/>
</g>
</svg>