<svg width="81" height="26" viewBox="0 0 81 26" fill="none" xmlns="http://www.w3.org/2000/svg">
<path fill-rule="evenodd" clip-rule="evenodd" d="M73.0554 12.5095C73.0554 8.55121 69.8466 5.34241 65.8883 5.34241L15.1534 5.34241C11.1951 5.34241 7.98633 8.55121 7.98633 12.5095C7.98633 16.4677 11.1951 19.6765 15.1534 19.6765L65.8883 19.6765C69.8466 19.6765 73.0554 16.4677 73.0554 12.5095Z" fill="#ECCB60" style="fill:#ECCB60;fill:color(display-p3 0.9255 0.7961 0.3765);fill-opacity:1;"/>
<path opacity="0.8" d="M6.41692 1.72098C0.280638 5.26376 -1.82181 13.1102 1.72098 19.2465C5.26376 25.3827 13.1102 27.4852 19.2465 23.9424C25.3827 20.3996 27.4852 12.5532 23.9424 6.41692C20.3996 0.280638 12.5532 -1.82181 6.41692 1.72098Z" fill="#4385BE" style="fill:#4385BE;fill:color(display-p3 0.2627 0.5216 0.7451);fill-opacity:1;"/>
<path opacity="0.8" d="M61.5481 1.72098C55.4119 5.26376 53.3094 13.1102 56.8522 19.2465C60.395 25.3827 68.2414 27.4852 74.3777 23.9424C80.514 20.3996 82.6164 12.5532 79.0736 6.41692C75.5309 0.280638 67.6844 -1.82181 61.5481 1.72098Z" fill="#36948B" style="fill:#36948B;fill:color(display-p3 0.2118 0.5804 0.5451);fill-opacity:1;"/>
</svg>
