<svg width="98" height="96" viewBox="0 0 98 96" fill="none" xmlns="http://www.w3.org/2000/svg">
<path fill-rule="evenodd" clip-rule="evenodd" d="M48.855 0C21.84 0 0.000976562 22 0.000976562 49.217C0.000976562 70.973 13.994 89.389 33.406 95.907C35.833 96.397 36.722 94.848 36.722 93.545C36.722 92.404 36.642 88.493 36.642 84.418C23.052 87.352 20.222 78.551 20.222 78.551C18.038 72.847 14.802 71.381 14.802 71.381C10.354 68.366 15.126 68.366 15.126 68.366C20.06 68.692 22.649 73.418 22.649 73.418C27.016 80.914 34.053 78.796 36.884 77.492C37.288 74.314 38.583 72.114 39.958 70.892C29.119 69.751 17.715 65.514 17.715 46.609C17.715 41.231 19.655 36.831 22.729 33.409C22.244 32.187 20.545 27.134 23.215 20.371C23.215 20.371 27.34 19.067 36.641 25.423C40.623 24.346 44.73 23.798 48.855 23.793C52.98 23.793 57.185 24.364 61.068 25.423C70.3699 19.067 74.4949 20.371 74.4949 20.371C77.1649 27.134 75.4649 32.187 74.9799 33.409C78.1349 36.831 79.9949 41.231 79.9949 46.609C79.9949 65.514 68.5909 69.669 57.671 70.892C59.4509 72.44 60.987 75.373 60.987 80.018C60.987 86.618 60.9069 91.915 60.9069 93.544C60.9069 94.848 61.797 96.397 64.2229 95.908C83.6349 89.388 97.6279 70.973 97.6279 49.217C97.7079 22 75.7889 0 48.855 0Z" fill="white" style="fill:white;fill-opacity:1;"/>
</svg>
