<svg xmlns="http://www.w3.org/2000/svg" xmlns:xlink="http://www.w3.org/1999/xlink" viewBox="0 0 1462 1124"><defs><filter x="-.2%" y="-.3%" width="100.5%" height="100.6%" filterUnits="objectBoundingBox" id="c"><feMorphology radius="1" in="SourceAlpha" result="shadowSpreadInner1"/><feOffset in="shadowSpreadInner1" result="shadowOffsetInner1"/><feComposite in="shadowOffsetInner1" in2="SourceAlpha" operator="arithmetic" k2="-1" k3="1" result="shadowInnerInner1"/><feColorMatrix values="0 0 0 0 1 0 0 0 0 1 0 0 0 0 1 0 0 0 0.3 0" in="shadowInnerInner1"/></filter><filter x="-58.3%" y="-58.3%" width="216.7%" height="216.7%" filterUnits="objectBoundingBox" id="g"><feMorphology radius="1" in="SourceAlpha" result="shadowSpreadInner1"/><feGaussianBlur stdDeviation="2" in="shadowSpreadInner1" result="shadowBlurInner1"/><feOffset in="shadowBlurInner1" result="shadowOffsetInner1"/><feComposite in="shadowOffsetInner1" in2="SourceAlpha" operator="arithmetic" k2="-1" k3="1" result="shadowInnerInner1"/><feColorMatrix values="0 0 0 0 0 0 0 0 0 0.404235338 0 0 0 0 0.652715774 0 0 0 1 0" in="shadowInnerInner1" result="shadowMatrixInner1"/><feOffset dx="-1" dy="-1" in="SourceAlpha" result="shadowOffsetInner2"/><feComposite in="shadowOffsetInner2" in2="SourceAlpha" operator="arithmetic" k2="-1" k3="1" result="shadowInnerInner2"/><feColorMatrix values="0 0 0 0 0.0684937961 0 0 0 0 0.302843863 0 0 0 0 0.439971301 0 0 0 0.559369256 0" in="shadowInnerInner2" result="shadowMatrixInner2"/><feMerge><feMergeNode in="shadowMatrixInner1"/><feMergeNode in="shadowMatrixInner2"/></feMerge></filter><filter x="-150%" y="-150%" width="400%" height="400%" filterUnits="objectBoundingBox" id="h"><feGaussianBlur stdDeviation="1" in="SourceGraphic"/></filter><filter x="0%" y="0%" width="100%" height="100%" filterUnits="objectBoundingBox" id="i"><feGaussianBlur in="SourceGraphic"/></filter><linearGradient x1="0%" y1="50%" x2="100%" y2="50%" id="a"><stop stop-color="#F9FAFB" offset="0%"/><stop stop-color="#5F6161" offset="4.85%"/><stop stop-color="#F6F6F6" offset="10.51%"/><stop stop-color="#F2F4F5" offset="90.32%"/><stop stop-color="#727475" offset="95.26%"/><stop stop-color="#F1F3F5" offset="100%"/></linearGradient><linearGradient x1="0%" y1="50%" x2="100%" y2="50%" id="b"><stop stop-color="#F9FAFB" offset="0%"/><stop stop-color="#5F6161" offset="9.86%"/><stop stop-color="#F6F6F6" offset="17.01%"/><stop stop-color="#F2F4F5" offset="83.77%"/><stop stop-color="#727475" offset="91.81%"/><stop stop-color="#F1F3F5" offset="100%"/></linearGradient><path d="M82.04 0h1291.92c28.52 0 38.87 2.97 49.3 8.55a58.15 58.15 0 0124.2 24.2c5.57 10.42 8.54 20.77 8.54 49.3v952.9c0 28.53-2.97 38.88-8.55 49.3a58.15 58.15 0 01-24.2 24.2c-10.42 5.58-20.77 8.55-49.3 8.55H82.06c-28.53 0-38.88-2.97-49.3-8.55a58.15 58.15 0 01-24.2-24.2c-5.58-10.42-8.55-20.77-8.55-49.3V82.06c0-28.53 2.97-38.88 8.55-49.3a58.15 58.15 0 0124.2-24.2C43.16 2.97 53.51 0 82.04 0z" id="d"/><path d="M10 75a3 3 0 000 6 3 3 0 000-6z" id="f"/><radialGradient cx="74.89%" cy="84.27%" fx="74.89%" fy="84.27%" r="58.43%" id="e"><stop stop-color="#464646" offset="0%"/><stop stop-color="#262626" offset="100%"/></radialGradient></defs><g fill="none" fill-rule="evenodd"><g fill-rule="nonzero"><path d="M190 29h58a2 2 0 010 4h-58a2 2 0 010-4z" fill="url(#a)" transform="rotate(90 345 1146)"/><path d="M2 131h50a2 2 0 010 4H2a2 2 0 010-4zM66 131h50a2 2 0 010 4H66a2 2 0 010-4z" fill="url(#b)" transform="translate(1241 989)"/></g><path d="M1426.26 11.55a58.15 58.15 0 0124.2 24.2c5.57 10.42 8.54 20.77 8.54 49.3v952.9c0 28.53-2.97 38.88-8.55 49.3a58.15 58.15 0 01-24.2 24.2c-10.42 5.58-20.77 8.55-49.3 8.55H85.06c-28.53 0-38.88-2.97-49.3-8.55a58.15 58.15 0 01-24.2-24.2c-5.52-10.32-8.49-20.56-8.55-48.44V85.04c0-28.52 2.97-38.87 8.55-49.3a58.15 58.15 0 0124.2-24.2C46.06 6.04 56.3 3.07 84.18 3h1292.77c28.52 0 38.87 2.97 49.3 8.55zM1388.86 48H73.14c-8.55.03-11.72.96-14.92 2.67a18.17 18.17 0 00-7.56 7.56C48.93 61.5 48 64.73 48 73.63v973.22c.03 8.55.96 11.72 2.67 14.92a18.17 18.17 0 007.56 7.56c3.26 1.74 6.5 2.67 15.4 2.67h1314.73c8.92 0 12.15-.93 15.4-2.67a18.17 18.17 0 007.57-7.56c1.74-3.26 2.67-6.5 2.67-15.4V73.63c0-8.92-.93-12.15-2.67-15.4a18.17 18.17 0 00-7.56-7.57c-3.26-1.74-6.5-2.67-15.4-2.67z" fill="#0E0E0E"/><g transform="translate(3 3)"><use fill="#000" filter="url(#c)" xlink:href="#d"/><path stroke-opacity=".1" stroke="#FFF" stroke-width="3" d="M1374.82-1.5c28.3.06 38.67 3.12 49.15 8.73a59.63 59.63 0 0124.8 24.8c5.66 10.58 8.73 21.06 8.73 50.01h0v952.92c0 28.95-3.07 39.43-8.73 50a59.63 59.63 0 01-24.8 24.81c-10.58 5.66-21.06 8.73-50.01 8.73h0H82.04c-28.95 0-39.43-3.07-50-8.73a59.63 59.63 0 01-24.81-24.8c-5.6-10.48-8.67-20.86-8.73-49.16h0V81.18c.06-28.3 3.12-38.67 8.73-49.15a59.63 59.63 0 0124.8-24.8C42.51 1.63 52.9-1.44 81.2-1.5h0z"/><path stroke-opacity=".4" stroke="#28292A" stroke-width="2" d="M1374.81-1c28.17.06 38.5 3.1 48.92 8.67a59.14 59.14 0 0124.6 24.6c5.63 10.53 8.67 20.96 8.67 49.77h0v952.92c0 28.8-3.04 39.24-8.67 49.77a59.14 59.14 0 01-24.6 24.6c-10.53 5.63-20.96 8.67-49.77 8.67h0H82.04c-28.8 0-39.24-3.04-49.77-8.67a59.14 59.14 0 01-24.6-24.6c-5.58-10.42-8.61-20.76-8.67-48.92h0V82.04c0-28.8 3.04-39.24 8.67-49.77a59.14 59.14 0 0124.6-24.6C42.69 2.09 53.03-.94 81.19-1h0z"/><path stroke="#9FA0A1" stroke-width="3" d="M1374.8 1.5c27.46.06 37.57 2.93 47.75 8.37a56.67 56.67 0 0123.58 23.58c5.5 10.28 8.37 20.5 8.37 48.6h0v952.9c0 28.1-2.87 38.32-8.37 48.6a56.67 56.67 0 01-23.58 23.58c-10.28 5.5-20.5 8.37-48.6 8.37h0H82.06c-28.1 0-38.32-2.87-48.6-8.37a56.67 56.67 0 01-23.58-23.58c-5.44-10.17-8.31-20.28-8.37-47.74h0V81.2c.06-27.47 2.93-37.58 8.37-47.76A56.67 56.67 0 0133.45 9.87C43.62 4.43 53.73 1.56 81.19 1.5h0z" stroke-linejoin="square"/><use stroke-opacity=".5" stroke="#F8F8F8" stroke-width="2" xlink:href="#d"/></g><g opacity=".7" transform="translate(1426 482)"><circle fill-opacity=".5" fill="url(#e)" cx="10" cy="78" r="6"/><use fill="#072244" xlink:href="#f"/><use fill="#000" filter="url(#g)" xlink:href="#f"/><path stroke="#333" d="M10 74.5a3.49 3.49 0 013.5 3.5 3.76 3.76 0 01-1.07 2.5c-.63.63-1.49 1-2.43 1a3.76 3.76 0 01-2.5-1.07c-.63-.63-1-1.49-1-2.43a3.76 3.76 0 011.07-2.5c.63-.63 1.49-1 2.43-1z"/><circle fill="#03DBF8" filter="url(#h)" cx="10" cy="77" r="1"/><path d="M12 78c.02-.8-.92-1-.92-1s.41.48.4 1c-.03.48-.48 1-.48 1s.98-.2 1-1z" fill="#14AAC8"/><path d="M8.5 79a.5.5 0 100-1 .5.5 0 000 1z" fill="#30A4B9" filter="url(#i)"/><circle fill="#000" fill-rule="nonzero" cx="10" cy="8" r="8"/><circle fill="#000" fill-rule="nonzero" cx="10" cy="42" r="10"/><circle fill="#000" fill-rule="nonzero" cx="10" cy="148" r="10"/><circle fill="#000" fill-rule="nonzero" cx="10" cy="111" r="3"/></g><path d="M1388.86 47c8.82.04 12.08 1.03 15.38 2.79a19.16 19.16 0 017.97 7.97c1.8 3.36 2.79 6.68 2.79 15.88h0v972.72c0 9.2-1 12.52-2.79 15.88a19.16 19.16 0 01-7.97 7.97c-3.36 1.8-6.68 2.79-15.88 2.79h0H73.64c-9.2 0-12.52-1-15.88-2.79a19.16 19.16 0 01-7.97-7.97c-1.76-3.3-2.75-6.56-2.79-15.39h0V73.15c.04-8.83 1.03-12.1 2.79-15.39a19.16 19.16 0 017.97-7.97c3.3-1.76 6.56-2.75 15.39-2.79h0z" stroke="#262626" stroke-width="2"/></g></svg>