<svg width="280" height="315" viewBox="0 0 280 315" fill="none" xmlns="http://www.w3.org/2000/svg">
<path d="M157.255 0L279.564 122.309V297.037C279.563 300.097 278.754 303.105 277.226 305.756C275.7 308.404 273.505 310.603 270.862 312.138C268.215 313.673 265.202 314.499 262.142 314.51C259.085 314.518 256.078 313.722 253.423 312.206L174.591 267.159C169.312 264.144 163.334 262.552 157.255 262.552C151.175 262.552 145.198 264.144 139.919 267.159L61.0864 312.206C58.4318 313.722 55.4242 314.518 52.3671 314.51C49.3073 314.499 46.2944 313.673 43.6478 312.138C41.0043 310.603 38.8098 308.404 37.2832 305.756C35.7557 303.105 34.9465 300.097 34.9456 297.037V170.189L128.503 224.194C130.717 225.476 133.215 226.184 135.772 226.276L171.281 227.453C171.984 227.472 172.68 227.301 173.294 226.958C173.91 226.614 174.427 226.101 174.779 225.491C175.127 224.884 175.3 224.194 175.291 223.494C175.28 222.791 175.08 222.097 174.71 221.498L155.958 191.33C154.607 189.16 152.743 187.339 150.532 186.058L37.9657 121.098C36.9927 120.536 35.9798 120.067 34.9456 119.664V34.9455C34.9456 25.6774 38.6299 16.7915 45.1835 10.2379C51.737 3.68439 60.6229 0 69.8911 0H157.255Z" fill="#DC2931" style="fill:#DC2931;fill:color(display-p3 0.8608 0.1598 0.1933);fill-opacity:1;"/>
<path d="M37.974 102.45C32.9177 99.5294 26.9085 98.7375 21.2683 100.248C15.6281 101.759 10.819 105.448 7.89895 110.504C4.97885 115.56 4.18696 121.57 5.69748 127.21C7.208 132.85 10.8972 137.659 15.9535 140.579L128.504 205.541C130.719 206.824 133.217 207.544 135.776 207.635L171.277 208.803C171.982 208.824 172.679 208.653 173.294 208.309C173.91 207.965 174.421 207.461 174.773 206.85C175.125 206.239 175.305 205.544 175.294 204.839C175.283 204.135 175.081 203.446 174.71 202.846L155.953 172.676C154.602 170.506 152.738 168.701 150.526 167.419L37.974 102.45Z" fill="#FF7FAA" style="fill:#FF7FAA;fill:color(display-p3 1.0000 0.4979 0.6653);fill-opacity:1;"/>
<path d="M159.255 122.309H279.564L157.255 0V120.309C157.255 121.414 158.15 122.309 159.255 122.309Z" fill="#FF7FAA" style="fill:#FF7FAA;fill:color(display-p3 1.0000 0.4979 0.6653);fill-opacity:1;"/>
</svg>
