<?xml version="1.0" encoding="UTF-8" standalone="no"?>
<!DOCTYPE svg PUBLIC "-//W3C//DTD SVG 1.1//EN" "http://www.w3.org/Graphics/SVG/1.1/DTD/svg11.dtd">
<svg width="100%" height="100%" viewBox="0 0 195 139" version="1.1" xmlns="http://www.w3.org/2000/svg" xmlns:xlink="http://www.w3.org/1999/xlink" xml:space="preserve" xmlns:serif="http://www.serif.com/" style="fill-rule:evenodd;clip-rule:evenodd;stroke-linejoin:round;stroke-miterlimit:2;">
    <g transform="matrix(0.990254,0,0,0.993789,0,-42.3553)">
        <rect id="Artboard1" x="0" y="42.62" width="196.639" height="139.51" style="fill:none;"/>
        <g id="Artboard11" serif:id="Artboard1">
            <g transform="matrix(1.00984,0,0,1.00625,0,0.357501)">
                <clipPath id="_clip1">
                    <path d="M156.04,44.34L189.92,44.34C192.5,44.34 194.6,46.44 194.6,49.02L194.6,174.09C194.6,176.67 192.5,178.77 189.92,178.77L156.04,178.77C153.46,178.77 151.36,176.67 151.36,174.09L151.36,49.02C151.36,46.44 153.46,44.34 156.04,44.34Z"/>
                </clipPath>
                <g clip-path="url(#_clip1)">
                    <g transform="matrix(0.938252,-0.345953,0.345953,0.938252,-27.91,66.73)">
                        <rect x="129.45" y="41.01" width="87.08" height="141.09" style="fill:url(#_Linear2);"/>
                    </g>
                </g>
            </g>
            <g transform="matrix(1.00984,0,0,1.00625,0,0.357501)">
                <clipPath id="_clip3">
                    <path d="M56.66,45.99L0.5,157.74C-0.66,160.05 0.27,162.86 2.58,164.02L32.85,179.23C35.16,180.39 37.97,179.46 39.13,177.15L95.29,65.4C96.45,63.09 95.52,60.28 93.21,59.12L62.94,43.91C62.26,43.57 61.55,43.41 60.84,43.41C59.13,43.41 57.48,44.35 56.66,45.99"/>
                </clipPath>
                <g clip-path="url(#_clip3)">
                    <g transform="matrix(0.917893,-0.396828,0.396828,0.917893,-40.48,28.2)">
                        <rect x="-23.86" y="29.77" width="143.51" height="164.28" style="fill:url(#_Linear4);"/>
                    </g>
                </g>
            </g>
            <g transform="matrix(1.00984,0,0,1.00625,0,0.357501)">
                <clipPath id="_clip5">
                    <path d="M103.9,46.39L79.87,168.2C79.37,170.73 81.01,173.18 83.54,173.69L116.75,180.39C119.29,180.9 121.77,179.25 122.27,176.71L146.3,54.9C146.8,52.37 145.16,49.92 142.63,49.41L109.42,42.71C109.11,42.65 108.8,42.62 108.49,42.62C106.3,42.62 104.34,44.16 103.9,46.39"/>
                </clipPath>
                <g clip-path="url(#_clip5)">
                    <g transform="matrix(0.938433,-0.345462,0.345462,0.938433,-31.65,45.95)">
                        <rect x="57.56" y="35.23" width="111.05" height="153.08" style="fill:url(#_Linear6);"/>
                    </g>
                </g>
            </g>
        </g>
    </g>
    <defs>
        <linearGradient id="_Linear2" x1="0" y1="0" x2="1" y2="0" gradientUnits="userSpaceOnUse" gradientTransform="matrix(97.45,0,0,97.45,104.999,109.563)"><stop offset="0" style="stop-color:rgb(176,45,233);stop-opacity:1"/><stop offset="0.02" style="stop-color:rgb(176,45,233);stop-opacity:1"/><stop offset="0.8" style="stop-color:rgb(109,0,204);stop-opacity:1"/><stop offset="1" style="stop-color:rgb(109,0,204);stop-opacity:1"/></linearGradient>
        <linearGradient id="_Linear4" x1="0" y1="0" x2="1" y2="0" gradientUnits="userSpaceOnUse" gradientTransform="matrix(107.08,0,0,107.08,27.7708,110.709)"><stop offset="0" style="stop-color:rgb(255,0,255);stop-opacity:1"/><stop offset="0" style="stop-color:rgb(255,0,255);stop-opacity:1"/><stop offset="0.17" style="stop-color:rgb(233,12,249);stop-opacity:1"/><stop offset="0.54" style="stop-color:rgb(192,35,237);stop-opacity:1"/><stop offset="0.73" style="stop-color:rgb(176,45,233);stop-opacity:1"/><stop offset="1" style="stop-color:rgb(176,45,233);stop-opacity:1"/></linearGradient>
        <linearGradient id="_Linear6" x1="0" y1="0" x2="1" y2="0" gradientUnits="userSpaceOnUse" gradientTransform="matrix(214.7,0,0,214.7,-0.293,112.728)"><stop offset="0" style="stop-color:rgb(255,0,255);stop-opacity:1"/><stop offset="0.02" style="stop-color:rgb(255,0,255);stop-opacity:1"/><stop offset="0.09" style="stop-color:rgb(233,12,249);stop-opacity:1"/><stop offset="0.23" style="stop-color:rgb(192,35,237);stop-opacity:1"/><stop offset="0.3" style="stop-color:rgb(176,45,233);stop-opacity:1"/><stop offset="0.42" style="stop-color:rgb(164,43,227);stop-opacity:1"/><stop offset="0.63" style="stop-color:rgb(134,38,213);stop-opacity:1"/><stop offset="0.85" style="stop-color:rgb(96,33,195);stop-opacity:1"/><stop offset="1" style="stop-color:rgb(96,33,195);stop-opacity:1"/></linearGradient>
    </defs>
</svg>
