<svg viewBox="0 0 27 20" fill="none" xmlns="http://www.w3.org/2000/svg">
<title>Memberstack</title>
<mask id="mask0_8692_22348" style="mask-type:luminance" maskUnits="userSpaceOnUse" x="0" y="0" width="27" height="20">
<path d="M26.3432 0H0V20H26.3432V0Z" fill="white" style="fill:white;fill-opacity:1;"/>
<path fill-rule="evenodd" clip-rule="evenodd" d="M13.1429 9.22259L13.1401 9.21669L11.3091 5.14427C10.9804 4.41312 10.2547 3.9798 9.49523 3.98243C8.72323 3.97977 7.98829 4.42783 7.66773 5.17562L5.68481 9.80147L5.66014 9.85903L5.13323 11.0883L4.8115 11.8387L4.19477 13.2774C3.76817 14.2727 4.23706 15.4219 5.24209 15.8444C6.24712 16.2668 7.40768 15.8025 7.83426 14.8073L8.25486 13.8261L9.15393 11.7287L9.17709 11.6747L9.52743 10.8574L9.5384 10.8319L9.54527 10.8471L9.91737 11.6747L11.3124 14.7774C11.4962 15.1862 11.8041 15.5019 12.1727 15.7003C12.2605 15.7548 12.3536 15.8031 12.4519 15.8444C13.4569 16.2668 14.6175 15.8025 15.0442 14.8073L15.9664 12.6557L16.3136 11.8459L16.7482 10.8319L16.7557 10.8483L17.1584 11.7441L18.5222 14.7774C18.9663 15.765 20.1349 16.2091 21.1323 15.7695C22.1298 15.3297 22.5783 14.1725 22.1342 13.1849L20.6317 9.84293L20.6298 9.83882L20.1775 8.83308L19.9397 8.3041L18.5189 5.14427C18.1903 4.41312 17.4645 3.9798 16.7051 3.98243C15.9331 3.97977 15.1982 4.42783 14.8775 5.17562L13.5732 8.21841L13.1429 9.22259Z" fill="black" style="fill:black;fill-opacity:1;"/>
</mask>
<g mask="url(#mask0_8692_22348)">
<path d="M13.1424 9.22206L9.47122 10.8424L13.2304 19.2032L16.8417 10.7786L13.1424 9.22206ZM9.49487 3.98192L9.48088 7.96377L9.49486 7.96382L9.50885 7.96377L9.49487 3.98192ZM9.53806 10.8314L13.2089 9.21011L9.4502 0.85597L5.83918 9.27382L9.53806 10.8314ZM12.1723 15.6997L14.3052 12.3248L14.2003 12.2598L14.0916 12.2012L12.1723 15.6997ZM16.7479 10.8314L20.4192 9.21102L16.6601 0.85007L13.0487 9.27476L16.7479 10.8314ZM20.6314 9.84241L16.9584 11.459L16.9592 11.4609L16.9599 11.4627L20.6314 9.84241ZM20.6295 9.83831L24.3023 8.22163L24.3015 8.21982L24.3008 8.218L20.6295 9.83831ZM16.7048 3.98192L16.6908 7.96377L16.7048 7.96382L16.7187 7.96377L16.7048 3.98192ZM9.46854 10.8365L9.47122 10.8424L16.8137 7.60174L16.8111 7.59584L9.46854 10.8365ZM7.63751 6.76404L9.46854 10.8365L16.8111 7.59584L14.9801 3.52347L7.63751 6.76404ZM9.50885 7.96377C8.73483 7.96644 7.98016 7.52615 7.63751 6.76404L14.9801 3.52347C13.98 1.29908 11.7738 -0.00787437 9.48088 3.57003e-05L9.50885 7.96377ZM11.3667 6.73165C11.0326 7.51113 10.2685 7.9665 9.48088 7.96377L9.50885 3.57003e-05C7.17722 -0.00800155 4.94335 1.34349 3.96809 3.61857L11.3667 6.73165ZM9.38374 11.3574L11.3667 6.73165L3.96809 3.61857L1.98518 8.2444L9.38374 11.3574ZM9.35906 11.4151L9.38374 11.3574L1.98518 8.2444L1.96032 8.30242L9.35906 11.4151ZM8.83214 12.6443L9.35906 11.4151L1.96032 8.30242L1.43359 9.53119L8.83214 12.6443ZM8.51042 13.3948L8.83214 12.6443L1.43359 9.53119L1.11188 10.2817L8.51042 13.3948ZM7.8937 14.8335L8.51042 13.3948L1.11188 10.2817L0.49514 11.7205L7.8937 14.8335ZM6.81143 12.1783C7.84908 12.6144 8.33555 13.8028 7.8937 14.8335L0.49514 11.7205C-0.799902 14.7416 0.624371 18.2284 3.67205 19.5095L6.81143 12.1783ZM4.13463 13.2502C4.57602 12.2206 5.77486 11.7424 6.81143 12.1783L3.67205 19.5095C6.71865 20.7901 10.2386 19.3834 11.5332 16.3632L4.13463 13.2502ZM4.55523 12.2691L4.13463 13.2502L11.5332 16.3632L11.9538 15.3822L4.55523 12.2691ZM5.4543 10.1717L4.55523 12.2691L11.9538 15.3822L12.8529 13.2848L5.4543 10.1717ZM5.47745 10.1176L5.4543 10.1717L12.8529 13.2848L12.8759 13.2308L5.47745 10.1176ZM5.82819 9.29939L5.47745 10.1176L12.8759 13.2308L13.2264 12.4134L5.82819 9.29939ZM5.83918 9.27382L5.82819 9.29939L13.2264 12.4134L13.237 12.3887L5.83918 9.27382ZM13.2161 9.22631L13.2089 9.21011L5.86716 12.4526L5.87406 12.4678L13.2161 9.22631ZM13.5884 10.0539L13.2161 9.22631L5.87406 12.4678L6.24572 13.2945L13.5884 10.0539ZM14.9833 13.1565L13.5884 10.0539L6.24572 13.2945L7.64074 16.3971L14.9833 13.1565ZM14.0916 12.2012C14.4722 12.4062 14.795 12.7376 14.9833 13.1565L7.64074 16.3971C8.19677 17.6338 9.1355 18.5966 10.2533 19.1984L14.0916 12.2012ZM14.0213 12.1783C14.1188 12.2192 14.2139 12.2682 14.3052 12.3248L10.0396 19.0747C10.3063 19.2402 10.5877 19.3859 10.8819 19.5095L14.0213 12.1783ZM11.3445 13.2502C11.7859 12.2206 12.9848 11.7424 14.0213 12.1783L10.8819 19.5095C13.9285 20.7901 17.4485 19.3834 18.7431 16.3632L11.3445 13.2502ZM12.2668 11.0986L11.3445 13.2502L18.7431 16.3632L19.6655 14.2116L12.2668 11.0986ZM12.614 10.2889L12.2668 11.0986L19.6655 14.2116L20.0125 13.402L12.614 10.2889ZM13.0487 9.27476L12.614 10.2889L20.0125 13.402L20.4472 12.3878L13.0487 9.27476ZM20.4267 9.22754L20.4192 9.21102L13.0766 12.4515L13.0841 12.4681L20.4267 9.22754ZM20.8294 10.1233L20.4267 9.22754L13.0841 12.4681L13.4867 13.3638L20.8294 10.1233ZM22.1931 13.1565L20.8294 10.1233L13.4867 13.3638L14.8507 16.3971L22.1931 13.1565ZM19.498 12.131C20.5266 11.6774 21.7339 12.1348 22.1931 13.1565L14.8507 16.3971C16.1982 19.3943 19.7423 20.7399 22.766 19.4068L19.498 12.131ZM18.4625 14.8046C18.0027 13.7818 18.4681 12.5851 19.498 12.131L22.766 19.4068C25.7908 18.0734 27.1532 14.5623 25.8051 11.5641L18.4625 14.8046ZM16.9599 11.4627L18.4625 14.8046L25.8051 11.5641L24.3023 8.22163L16.9599 11.4627ZM16.9565 11.455L16.9584 11.459L24.3043 8.22575L24.3023 8.22163L16.9565 11.455ZM16.506 10.4528L16.9584 11.459L24.3008 8.218L23.8485 7.21228L16.506 10.4528ZM16.2681 9.92387L16.506 10.4528L23.8485 7.21228L23.6108 6.6833L16.2681 9.92387ZM14.8474 6.76402L16.2681 9.92387L23.6108 6.6833L22.1901 3.52347L14.8474 6.76402ZM16.7187 7.96377C15.9447 7.96644 15.19 7.52615 14.8474 6.76402L22.1901 3.52347C21.1899 1.29908 18.9838 -0.00787437 16.6908 3.57003e-05L16.7187 7.96377ZM18.5764 6.73165C18.2424 7.51111 17.4784 7.9665 16.6908 7.96377L16.7187 3.57003e-05C14.3871 -0.00800155 12.1532 1.34349 11.178 3.61857L18.5764 6.73165ZM17.2723 9.77443L18.5764 6.73165L11.178 3.61857L9.87364 6.66134L17.2723 9.77443ZM16.8417 10.7786L17.2723 9.77443L9.87364 6.66134L9.44319 7.66555L16.8417 10.7786Z" fill="black" style="fill:black;fill-opacity:1;"/>
<path fill-rule="evenodd" clip-rule="evenodd" d="M12.9201 8.9802L12.9175 8.97457L11.0864 5.09206C10.7577 4.39499 10.032 3.98188 9.27256 3.98439C8.50058 3.98184 7.76563 4.40901 7.44507 5.12194L5.46214 9.53208L5.43747 9.58696L4.91057 10.7589L4.58885 11.4744L3.97212 12.846C3.54551 13.7949 4.0144 14.8904 5.01944 15.2932C6.02445 15.6959 7.18502 15.2534 7.6116 14.3045L8.0322 13.369L8.93126 11.3694L8.95444 11.318L9.30477 10.5388L9.31575 10.5144L9.32262 10.529L9.69472 11.318L11.0897 14.2759C11.2735 14.6657 11.5815 14.9668 11.95 15.1558C12.0378 15.2079 12.131 15.2539 12.2293 15.2932C13.2343 15.6959 14.3949 15.2534 14.8215 14.3045L15.7438 12.2532L16.091 11.4812L16.5256 10.5144L16.5331 10.5301L16.9357 11.3841L18.2996 14.2759C18.7436 15.2176 19.9123 15.6409 20.9096 15.2219C21.907 14.8026 22.3557 13.6994 21.9116 12.7578L20.4089 9.57161L20.4072 9.5677L19.9549 8.60886L19.717 8.10454L18.2963 5.09206C17.9676 4.39499 17.2419 3.98188 16.4823 3.98439C15.7103 3.98184 14.9755 4.40901 14.6549 5.12194L13.3506 8.02283L12.9201 8.9802Z" fill="white" style="fill:white;fill-opacity:1;"/>
<path fill-rule="evenodd" clip-rule="evenodd" d="M12.9201 8.9802L12.9175 8.97457L11.0864 5.09206C10.7577 4.39499 10.032 3.98188 9.27256 3.98439C8.50058 3.98184 7.76563 4.40901 7.44507 5.12194L5.46214 9.53208L5.43747 9.58696L4.91057 10.7589L4.58885 11.4744L3.97212 12.846C3.54551 13.7949 4.0144 14.8904 5.01944 15.2932C6.02445 15.6959 7.18502 15.2534 7.6116 14.3045L8.0322 13.369L8.93126 11.3694L8.95444 11.318L9.30477 10.5388L9.31575 10.5144L9.32262 10.529L9.69472 11.318L11.0897 14.2759C11.2735 14.6657 11.5815 14.9668 11.95 15.1558C12.0378 15.2079 12.131 15.2539 12.2293 15.2932C13.2343 15.6959 14.3949 15.2534 14.8215 14.3045L15.7438 12.2532L16.091 11.4812L16.5256 10.5144L16.5331 10.5301L16.9357 11.3841L18.2996 14.2759C18.7436 15.2176 19.9123 15.6409 20.9096 15.2219C21.907 14.8026 22.3557 13.6994 21.9116 12.7578L20.4089 9.57161L20.4072 9.5677L19.9549 8.60886L19.717 8.10454L18.2963 5.09206C17.9676 4.39499 17.2419 3.98188 16.4823 3.98439C15.7105 3.98184 14.9755 4.40901 14.6549 5.12194L13.3506 8.02283L12.9201 8.9802Z" fill="white" style="fill:white;fill-opacity:1;"/>
</g>
<mask id="mask1_8692_22348" style="mask-type:luminance" maskUnits="userSpaceOnUse" x="1" y="1" width="24" height="18">
<path d="M24.8422 1.39453H1.05664V18.0462H24.8422V1.39453Z" fill="white" style="fill:white;fill-opacity:1;"/>
<path fill-rule="evenodd" clip-rule="evenodd" d="M12.9201 8.9802L12.9175 8.97457L11.0865 5.09205C10.7577 4.39499 10.032 3.98188 9.27256 3.98439C8.50057 3.98184 7.76562 4.40901 7.44507 5.12194L5.46214 9.53208L5.43746 9.58697L4.91057 10.7589L4.58885 11.4744L3.97212 12.8461C3.54551 13.7948 4.01441 14.8905 5.01944 15.2932C6.02445 15.696 7.18502 15.2533 7.6116 14.3045L8.03221 13.3691L8.93127 11.3695L8.95444 11.318L9.30476 10.5388L9.31575 10.5144L9.32262 10.529L9.69472 11.318L11.0897 14.2759C11.2736 14.6657 11.5815 14.9667 11.95 15.1559C12.0378 15.2078 12.1309 15.2538 12.2293 15.2932C13.2344 15.696 14.3949 15.2533 14.8214 14.3045L15.7439 12.2532L16.0908 11.4812L16.5256 10.5144L16.5331 10.5301L16.9359 11.3841L18.2996 14.2759C18.7436 15.2175 19.9123 15.641 20.9096 15.2219C21.907 14.8025 22.3557 13.6994 21.9116 12.7577L20.409 9.57161L20.4072 9.5677L19.9549 8.60885L19.717 8.10454L18.2963 5.09205C17.9676 4.39499 17.2419 3.98188 16.4825 3.98439C15.7105 3.98184 14.9755 4.40901 14.6549 5.12194L13.3506 8.02284L12.9201 8.9802Z" fill="white" style="fill:white;fill-opacity:1;"/>
</mask>
<g mask="url(#mask1_8692_22348)">
<path d="M12.921 8.97869L10.4178 10.032L12.9809 15.4666L15.4432 9.99044L12.921 8.97869ZM9.27335 3.98288L9.2638 6.57119L9.27333 6.57123L9.28289 6.57119L9.27335 3.98288ZM9.31655 10.5129L11.8194 9.45907L9.25664 4.02865L6.79457 9.50048L9.31655 10.5129ZM11.9508 15.1544L13.4051 12.9606L13.3335 12.9183L13.2593 12.8802L11.9508 15.1544ZM16.5264 10.5129L19.0296 9.45967L16.4664 4.02482L14.0043 9.50109L16.5264 10.5129ZM20.4099 9.57011L17.9055 10.621L17.9067 10.6233L20.4099 9.57011ZM20.408 9.5662L22.9122 8.51531L22.9112 8.51294L20.408 9.5662ZM16.4832 3.98288L16.4738 6.57119L16.4832 6.57123L16.4927 6.57119L16.4832 3.98288ZM10.4152 10.0263L10.4178 10.032L15.4241 7.92542L15.4215 7.91981L10.4152 10.0263ZM8.58412 6.14377L10.4152 10.0263L15.4215 7.91981L13.5905 4.03732L8.58412 6.14377ZM9.28289 6.57119C8.99678 6.57212 8.71315 6.41737 8.58412 6.14377L13.5905 4.03732C12.8039 2.3696 11.0688 1.38862 9.2638 1.39456L9.28289 6.57119ZM9.9681 6.13222C9.84227 6.41206 9.55521 6.57215 9.2638 6.57119L9.28289 1.39456C7.4475 1.38853 5.69056 2.40294 4.92362 4.10866L9.9681 6.13222ZM7.98518 10.5423L9.9681 6.13222L4.92362 4.10866L2.94069 8.51877L7.98518 10.5423ZM7.96051 10.5972L7.98518 10.5423L2.94069 8.51877L2.91591 8.57396L7.96051 10.5972ZM7.43358 11.7692L7.96051 10.5972L2.91591 8.57396L2.38912 9.74556L7.43358 11.7692ZM7.11185 12.4847L7.43358 11.7692L2.38912 9.74556L2.0674 10.461L7.11185 12.4847ZM6.49515 13.8564L7.11185 12.4847L2.0674 10.461L1.45066 11.8327L6.49515 13.8564ZM6.09046 12.9089C6.47818 13.0643 6.66066 13.4882 6.49515 13.8564L1.45066 11.8327C0.431932 14.0985 1.55224 16.7136 3.94999 17.6744L6.09046 12.9089ZM5.09017 13.2911C5.25538 12.9238 5.70348 12.754 6.09046 12.9089L3.94999 17.6744C6.34699 18.6351 9.11625 17.5797 10.1346 15.3147L5.09017 13.2911ZM5.51075 12.3558L5.09017 13.2911L10.1346 15.3147L10.5552 14.3794L5.51075 12.3558ZM6.40982 10.3562L5.51075 12.3558L10.5552 14.3794L11.4543 12.3798L6.40982 10.3562ZM6.43298 10.3047L6.40982 10.3562L11.4543 12.3798L11.4775 12.3283L6.43298 10.3047ZM6.78358 9.52486L6.43298 10.3047L11.4775 12.3283L11.8278 11.549L6.78358 9.52486ZM6.79457 9.50048L6.78358 9.52486L11.8278 11.549L11.8385 11.5253L6.79457 9.50048ZM11.8266 9.47423L11.8194 9.45907L6.81366 11.5667L6.82053 11.5812L11.8266 9.47423ZM12.1987 10.2632L11.8266 9.47423L6.82053 11.5812L7.19234 12.3697L12.1987 10.2632ZM13.5936 13.2211L12.1987 10.2632L7.19234 12.3697L8.58737 15.3277L13.5936 13.2211ZM13.2593 12.8802C13.4015 12.9531 13.5237 13.0728 13.5936 13.2211L8.58737 15.3277C9.02495 16.2555 9.763 16.9771 10.6424 17.4286L13.2593 12.8802ZM13.3003 12.9089C13.3356 12.9231 13.3707 12.9403 13.4051 12.9606L10.4966 17.3482C10.7064 17.4722 10.928 17.5817 11.1599 17.6744L13.3003 12.9089ZM12.3 13.2911C12.4653 12.9238 12.9134 12.754 13.3003 12.9089L11.1599 17.6744C13.5569 18.6351 16.3261 17.5797 17.3446 15.3147L12.3 13.2911ZM13.2223 11.2399L12.3 13.2911L17.3446 15.3147L18.2668 13.2635L13.2223 11.2399ZM13.5695 10.4679L13.2223 11.2399L18.2668 13.2635L18.6139 12.4915L13.5695 10.4679ZM14.0043 9.50109L13.5695 10.4679L18.6139 12.4915L19.0486 11.5246L14.0043 9.50109ZM19.0369 9.4754L19.0296 9.45967L14.0233 11.5661L14.0306 11.5819L19.0369 9.4754ZM19.4397 10.3294L19.0369 9.4754L14.0306 11.5819L14.4334 12.4359L19.4397 10.3294ZM20.8035 13.2211L19.4397 10.3294L14.4334 12.4359L15.7972 15.3277L20.8035 13.2211ZM19.7963 12.8556C20.1804 12.6941 20.6316 12.8566 20.8035 13.2211L15.7972 15.3277C16.8573 17.5755 19.6457 18.5851 22.0246 17.5851L19.7963 12.8556ZM19.4093 13.8094C19.237 13.4442 19.4115 13.0174 19.7963 12.8556L22.0246 17.5851C24.4043 16.5848 25.4759 13.9516 24.4156 11.703L19.4093 13.8094ZM17.9067 10.6233L19.4093 13.8094L24.4156 11.703L22.913 8.51687L17.9067 10.6233ZM17.9036 10.617L17.9055 10.621L22.9141 8.51923L22.9122 8.51531L17.9036 10.617ZM17.4525 9.66057L17.9049 10.6194L22.9112 8.51294L22.4588 7.55412L17.4525 9.66057ZM17.2148 9.15627L17.4525 9.66057L22.4588 7.55412L22.221 7.0498L17.2148 9.15627ZM15.7941 6.14375L17.2148 9.15627L22.221 7.0498L20.8003 4.03732L15.7941 6.14375ZM16.4927 6.57119C16.2067 6.57212 15.9231 6.41734 15.7941 6.14375L20.8003 4.03732C20.0138 2.3696 18.2786 1.38862 16.4738 1.39456L16.4927 6.57119ZM17.178 6.13222C17.0521 6.41206 16.7651 6.57215 16.4738 6.57119L16.4927 1.39456C14.6573 1.38853 12.9004 2.40294 12.1335 4.10863L17.178 6.13222ZM15.8737 9.03312L17.178 6.13222L12.1335 4.10863L10.8292 7.00954L15.8737 9.03312ZM15.4432 9.99044L15.8737 9.03312L10.8292 7.00954L10.3987 7.9669L15.4432 9.99044Z" fill="white" style="fill:white;fill-opacity:1;"/>
</g>
<mask id="mask2_8692_22348" style="mask-type:luminance" maskUnits="userSpaceOnUse" x="3" y="3" width="20" height="13">
<path d="M22.083 3.96484H3.81445V15.4398H22.083V3.96484Z" fill="white" style="fill:white;fill-opacity:1;"/>
</mask>
<g mask="url(#mask2_8692_22348)">
<path d="M19.7173 8.0918L21.9118 12.745C22.3561 13.6866 21.9074 14.7898 20.91 15.2091C19.9126 15.6283 18.744 15.2048 18.2998 14.2631L16.526 10.5016L15.7441 12.2404V8.0918H19.7173Z" fill="#2AA8FF" style="fill:#2AA8FF;fill:color(display-p3 0.1647 0.6588 1.0000);fill-opacity:1;"/>
<path d="M19.9547 8.59961L20.4089 9.56236C20.1346 9.47242 19.84 9.42353 19.5333 9.42353C18.2663 9.42353 17.2058 10.2575 16.9357 11.3749L16.5255 10.5052L16.0908 11.472V8.59961H19.9547Z" fill="#393939" fill-opacity="0.2" style="fill:#393939;fill:color(display-p3 0.2235 0.2235 0.2235);fill-opacity:0.2;"/>
<path d="M13.3501 8.01114V11.3063H9.6943L9.31534 10.5027L8.95402 11.3063H4.91016V10.7472L7.44466 5.11023C7.76522 4.3973 8.50016 3.97012 9.27214 3.97267C10.0316 3.97018 10.7573 4.38329 11.086 5.08035L12.9198 8.96849L13.3501 8.01114Z" fill="#017ACE" style="fill:#017ACE;fill:color(display-p3 0.0039 0.4784 0.8078);fill-opacity:1;"/>
<path d="M12.9181 8.96285L12.9207 8.96851L14.6555 5.11023C14.9762 4.3973 15.7111 3.97012 16.4831 3.97267C17.2425 3.97018 17.9683 4.38329 18.2969 5.08035L20.4077 9.55597C19.9821 9.20897 19.4275 8.99911 18.821 8.99911C17.7672 8.99911 16.8701 9.63269 16.5337 10.5184L16.5262 10.5027L14.8221 14.2928C14.3955 15.2416 13.2349 15.6843 12.2299 15.2816C12.1316 15.2422 12.0385 15.1961 11.9507 15.1442C11.5821 14.955 11.2742 14.654 11.0904 14.2642L9.32324 10.5172C9.58927 10.5892 9.87022 10.6277 10.1607 10.6277C11.383 10.6277 12.4366 9.9458 12.9181 8.96285Z" fill="#AEDEFF" style="fill:#AEDEFF;fill:color(display-p3 0.6824 0.8706 1.0000);fill-opacity:1;"/>
<path d="M9.30479 10.5291L8.03222 13.3595C7.72187 13.4939 7.37605 13.5688 7.01146 13.5688C5.73258 13.5688 4.68446 12.6472 4.58887 11.4648L5.46219 9.52242C5.88273 9.19369 6.42264 8.99609 7.01146 8.99609C8.07136 8.99609 8.97273 9.63629 9.30479 10.5291Z" fill="black" style="fill:black;fill-opacity:1;"/>
<path d="M8.93127 11.3592L7.6116 14.2941C7.18502 15.243 6.02445 15.6856 5.01944 15.2829C4.0144 14.8801 3.54551 13.7845 3.97212 12.8356L5.43747 9.57661C5.74767 9.44699 6.09074 9.375 6.45155 9.375C7.69724 9.375 8.73139 10.233 8.93127 11.3592Z" fill="#393939" style="fill:#393939;fill:color(display-p3 0.2226 0.2226 0.2226);fill-opacity:1;"/>
</g>
</svg>