<svg viewBox="0 0 20 20" fill="none" xmlns="http://www.w3.org/2000/svg">
<title>OpenAI</title>
<path d="M8.81986 5.7259e-05C6.63216 5.7259e-05 4.68852 1.40877 4.01105 3.488C3.31579 3.63132 2.65904 3.92106 2.08449 4.33796C1.50993 4.75486 1.03076 5.28935 0.678856 5.90585C-0.418358 7.80221 -0.167814 10.1862 1.30209 11.8116C0.848284 13.1731 1.00404 14.6629 1.72879 15.8957C2.81928 17.7987 5.01346 18.774 7.1606 18.3203C7.63072 18.8508 8.20855 19.2751 8.85556 19.5647C9.50257 19.8544 10.2039 20.0027 10.9128 20C13.1005 20 15.0441 18.5912 15.7216 16.5119C17.1303 16.2207 18.3427 15.3402 19.0471 14.0941C20.151 12.1978 19.9005 9.81378 18.4308 8.18834V8.18162C18.6549 7.50868 18.7329 6.79562 18.6593 6.09015C18.5857 5.38467 18.3624 4.70304 18.0041 4.09085C16.9133 2.19448 14.7189 1.21895 12.5787 1.67275C12.1064 1.14356 11.5271 0.720781 10.8791 0.432407C10.2311 0.144034 9.52919 -0.00333495 8.81986 5.7259e-05ZM8.81986 1.30054L8.81314 1.30726C9.69367 1.30726 10.5403 1.61204 11.2176 2.17432C11.1904 2.18776 11.1362 2.2216 11.0957 2.24199L7.11333 4.53793C6.91006 4.65313 6.78815 4.86984 6.78815 5.10693V10.4979L5.07466 9.5092V5.0527C5.07427 4.05863 5.46851 3.10506 6.17074 2.40148C6.87298 1.69789 7.8258 1.30206 8.81986 1.30054ZM13.6171 2.87004C14.2771 2.86877 14.9256 3.04175 15.4973 3.37148C16.069 3.70122 16.5434 4.17603 16.8728 4.74792C17.3062 5.50651 17.4687 6.39374 17.3197 7.25384C17.2926 7.23344 17.2385 7.20657 17.2045 7.18617L13.2221 4.88328C13.1219 4.82662 13.0089 4.79684 12.8938 4.79684C12.7787 4.79684 12.6655 4.82662 12.5653 4.88328L7.8988 7.57878V5.60107L11.7525 3.3728C12.319 3.04431 12.9622 2.87105 13.6171 2.87004ZM3.76746 4.91711V9.65133C3.76746 9.88835 3.88937 10.0983 4.09264 10.2203L8.75219 12.9091L7.03173 13.9045L3.18477 11.683C2.32507 11.1848 1.69818 10.3657 1.44171 9.40578C1.18525 8.44581 1.32018 7.42329 1.81686 6.56269C2.25501 5.80321 2.94509 5.22121 3.76746 4.91711ZM12.6939 6.08872L16.5476 8.31025C18.3424 9.34655 18.9518 11.6358 17.9155 13.4306L17.9222 13.4373C17.4821 14.1959 16.7912 14.7784 15.9716 15.0764V10.342C15.9716 10.1048 15.8497 9.88814 15.6464 9.77324L10.9802 7.07746L12.6939 6.08872ZM9.86282 7.72109L11.8271 8.85886V11.1277L9.86282 12.2654L7.8988 11.1277V8.85886L9.86282 7.72109ZM12.9512 9.5092L14.6647 10.4979V14.9477C14.6647 17.0202 12.985 18.7 10.9195 18.7V18.6932C10.0457 18.6932 9.19232 18.3884 8.5218 17.8264C8.54892 17.813 8.60988 17.7788 8.64372 17.7585L12.6261 15.4625C12.8293 15.3474 12.958 15.1306 12.951 14.8936L12.9512 9.5092ZM11.8336 12.4215V14.3989L7.97991 16.6205C6.18507 17.65 3.89585 17.0404 2.85959 15.2523H2.86632C2.42619 14.5004 2.27019 13.6065 2.41923 12.7464C2.44634 12.7668 2.50058 12.7936 2.53441 12.814L6.51672 15.117C6.61691 15.1737 6.73005 15.2034 6.84514 15.2034C6.96024 15.2034 7.07338 15.1737 7.17357 15.117L11.8336 12.4215Z" fill="black" style="fill:black;fill-opacity:1;"/>
</svg>