<?xml version="1.0" encoding="UTF-8" standalone="no"?>
<!DOCTYPE svg PUBLIC "-//W3C//DTD SVG 1.1//EN" "http://www.w3.org/Graphics/SVG/1.1/DTD/svg11.dtd">
<svg width="100%" height="100%" viewBox="0 0 433 481" version="1.1" xmlns="http://www.w3.org/2000/svg" xmlns:xlink="http://www.w3.org/1999/xlink" xml:space="preserve" xmlns:serif="http://www.serif.com/" style="fill-rule:evenodd;clip-rule:evenodd;stroke-linejoin:round;stroke-miterlimit:2;">
    <g transform="matrix(1,0,0,1,-284,-259.61)">
        <path d="M710.505,382.498L707.138,376.497C702.793,369.241 696.666,363.211 689.336,358.976L527.923,266.091C520.614,261.86 512.318,259.625 503.867,259.61L496.892,259.61C488.442,259.625 480.145,261.86 472.836,266.091L311.423,359.216C304.134,363.423 298.079,369.464 293.863,376.737L290.495,382.738C286.255,390.03 284.015,398.308 284,406.74L284,592.75C284.015,601.181 286.255,609.459 290.495,616.751L293.863,622.752C298.188,629.941 304.218,635.958 311.423,640.272L473.077,733.158C480.348,737.477 488.67,739.719 497.133,739.638L503.867,739.638C512.318,739.624 520.614,737.389 527.923,733.158L689.336,640.033C696.698,635.922 702.776,629.858 706.897,622.512L710.505,616.511C714.694,609.198 716.929,600.934 717,592.51L717,406.499C716.986,398.068 714.745,389.79 710.505,382.498Z" style="fill:url(#_Linear1);"/>
        <path d="M501.311,314.748L346.436,408.808L506.987,499.624L506.987,684.501L661.861,590.441L661.861,408.808L501.311,314.748Z" style="fill:white;fill-rule:nonzero;"/>
        <path d="M677.47,400.7L674.633,395.632C670.972,389.504 665.809,384.411 659.631,380.834L523.61,302.383C517.45,298.811 510.459,296.923 503.338,296.91L497.459,296.91C490.339,296.923 483.347,298.811 477.187,302.383L341.166,381.037C335.023,384.589 329.92,389.692 326.367,395.835L323.529,400.903C319.957,407.062 318.069,414.054 318.056,421.175L318.056,578.278C318.069,585.399 319.957,592.39 323.529,598.55L326.367,603.618C330.012,609.69 335.094,614.771 341.166,618.415L477.39,696.866C483.518,700.513 490.531,702.407 497.662,702.339L503.338,702.339C510.459,702.327 517.45,700.439 523.61,696.866L659.631,618.213C665.835,614.741 670.957,609.619 674.43,603.415L677.47,598.346C681,592.17 682.884,585.19 682.944,578.076L682.944,420.972C682.932,413.851 681.044,406.859 677.47,400.7ZM497.459,337.453L503.338,337.453L622.129,405.971L500.5,476.11L378.871,405.971L497.459,337.453ZM520.771,651.661L639.359,583.143L642.4,578.076L642.4,441.04L520.771,511.382L520.771,651.661Z"/>
    </g>
    <defs>
        <linearGradient id="_Linear1" x1="0" y1="0" x2="1" y2="0" gradientUnits="userSpaceOnUse" gradientTransform="matrix(433.81,121.629,-121.629,433.81,292.109,389.348)"><stop offset="0" style="stop-color:rgb(248,111,77);stop-opacity:1"/><stop offset="0.23" style="stop-color:rgb(248,111,77);stop-opacity:1"/><stop offset="0.6" style="stop-color:rgb(184,83,177);stop-opacity:1"/><stop offset="0.96" style="stop-color:rgb(83,59,250);stop-opacity:1"/><stop offset="1" style="stop-color:rgb(83,59,250);stop-opacity:1"/></linearGradient>
    </defs>
</svg>
