<?xml version="1.0" encoding="UTF-8" standalone="no"?>
<!DOCTYPE svg PUBLIC "-//W3C//DTD SVG 1.1//EN" "http://www.w3.org/Graphics/SVG/1.1/DTD/svg11.dtd">
<svg width="100%" height="100%" viewBox="0 0 2819 750" version="1.1" xmlns="http://www.w3.org/2000/svg" xmlns:xlink="http://www.w3.org/1999/xlink" xml:space="preserve" xmlns:serif="http://www.serif.com/" style="fill-rule:evenodd;clip-rule:evenodd;stroke-linejoin:round;stroke-miterlimit:2;">
    <g transform="matrix(1,0,0,1,-7612,-5038)">
        <g id="svgator-neworigin" transform="matrix(1,0,0,1,-0.713182,-0.164047)">
            <rect x="7612.71" y="5038.16" width="2818.12" height="749.448" style="fill:none;"/>
            <clipPath id="_clip1">
                <rect x="7612.71" y="5038.16" width="2818.12" height="749.448"/>
            </clipPath>
            <g clip-path="url(#_clip1)">
                <g transform="matrix(1,0,0,1,-83.3065,-1082.12)">
                    <path d="M7696.73,6495.16C7696.73,6495.16 8314.42,6481.24 8646.01,6234.46C8744.31,6161.31 8844.28,6120.49 8896.39,6120.45C8966.71,6120.39 8974.72,6123.59 9214.45,6265.74C9385.65,6367.25 9436.96,6383.37 9463.39,6384.71C9507.15,6386.92 9549.5,6369.99 9673.56,6291.3C9746.56,6245 9847.92,6279.38 9945.43,6338.47C10000.6,6371.93 10191.2,6479.78 10514.9,6495.16C10165,6541.11 10070.6,6575.54 9961.68,6637.44C9811.85,6722.63 9751.82,6735.15 9682.68,6707.24C9556.16,6656.18 9540.02,6602.75 9462.79,6607.13C9412.14,6610.01 9268.23,6694.33 9231.33,6716.98C9048.03,6829.54 9011.11,6870.97 8892.82,6869.87C8810.82,6869.11 8664.71,6758.63 8542.78,6691.35C8350.54,6585.29 7775.56,6488.17 7696.73,6495.16Z" style="fill:rgb(72,161,125);"/>
                </g>
            </g>
        </g>
    </g>
</svg>
