<svg width="24" height="18" viewBox="0 0 24 18" fill="none" xmlns="http://www.w3.org/2000/svg">
<g clip-path="url(#clip0_9610_3898)">
<path d="M24 12.0003V17.0003C24 17.2655 23.8947 17.5199 23.7071 17.7074C23.5196 17.895 23.2652 18.0003 23 18.0003H1.00001C0.734796 18.0003 0.480442 17.895 0.292906 17.7074C0.10537 17.5199 1.25669e-05 17.2655 1.25669e-05 17.0003V12.0003C-0.000923321 11.7374 0.0504232 11.4769 0.151067 11.234C0.251711 10.991 0.399643 10.7706 0.586262 10.5853L10.5863 0.585323C10.9613 0.210534 11.4698 0 12 0C12.5302 0 13.0387 0.210534 13.4138 0.585323L23.4138 10.5853C23.6004 10.7706 23.7483 10.991 23.849 11.234C23.9496 11.4769 24.0009 11.7374 24 12.0003Z" fill="#696A67" style="fill:#696A67;fill:color(display-p3 0.4118 0.4157 0.4039);fill-opacity:1;"/>
</g>
<defs>
<clipPath id="clip0_9610_3898">
<rect width="24" height="18.0003" fill="white" style="fill:white;fill-opacity:1;"/>
</clipPath>
</defs>
</svg>
