<svg width="48" height="34" viewBox="0 0 48 34" fill="none" xmlns="http://www.w3.org/2000/svg">
<path d="M23.9999 0.00012207C24.2162 0.00012207 24.6519 0.0978459 25.2898 0.760833C25.9342 1.43041 26.6241 2.52462 27.2538 4.07184C28.5084 7.15426 29.3388 11.5765 29.3388 16.5832C29.3388 21.5899 28.5084 26.0122 27.2538 29.0946C26.6241 30.6418 25.9342 31.736 25.2898 32.4056C24.6519 33.0686 24.2162 33.1663 23.9999 33.1663C23.7837 33.1663 23.348 33.0686 22.71 32.4056C22.0657 31.736 21.3758 30.6418 20.746 29.0946C19.4914 26.0122 18.6611 21.5899 18.6611 16.5832C18.6611 11.5765 19.4914 7.15426 20.746 4.07184C21.3758 2.52462 22.0657 1.43041 22.71 0.760833C23.348 0.0978459 23.7837 0.00012207 23.9999 0.00012207Z" fill="#0B64FE" style="fill:#0B64FE;fill:color(display-p3 0.0431 0.3922 0.9961);fill-opacity:1;"/>
<path d="M41.2642 28.0597C45.5936 24.9476 48 20.8585 48 16.5832C48 12.3079 45.5936 8.21881 41.2642 5.1067C39.7112 3.99032 37.9299 3.01731 35.9677 2.22863C39.8553 5.70577 42.3155 10.847 42.3155 16.5832C42.3155 22.3194 39.8553 27.4607 35.9677 30.9378C37.9299 30.1491 39.7112 29.1761 41.2642 28.0597Z" fill="#0B64FE" style="fill:#0B64FE;fill:color(display-p3 0.0431 0.3922 0.9961);fill-opacity:1;"/>
<path d="M5.68439 16.5832C5.68439 22.3193 8.14453 27.4606 12.032 30.9377C10.07 30.1491 8.28881 29.1761 6.7358 28.0597C2.40642 24.9476 0 20.8585 0 16.5832C0 12.3079 2.40642 8.21881 6.7358 5.1067C8.28881 3.99035 10.07 3.01736 12.032 2.2287C8.14453 5.70583 5.68439 10.8471 5.68439 16.5832Z" fill="#0B64FE" style="fill:#0B64FE;fill:color(display-p3 0.0431 0.3922 0.9961);fill-opacity:1;"/>
<path d="M8.0634 16.5832C8.0634 24.3103 13.1104 30.7141 19.8677 32.6013C17.7123 29.2379 16.282 23.3209 16.282 16.5832C16.282 9.84549 17.7123 3.92853 19.8677 0.565167C13.1104 2.45229 8.0634 8.85609 8.0634 16.5832Z" fill="#0B64FE" style="fill:#0B64FE;fill:color(display-p3 0.0431 0.3922 0.9961);fill-opacity:1;"/>
<path d="M28.1322 32.6013C34.8895 30.7141 39.9365 24.3103 39.9365 16.5832C39.9365 8.85609 34.8895 2.45228 28.1322 0.565167C30.2875 3.92853 31.7178 9.84549 31.7178 16.5832C31.7178 23.3209 30.2875 29.2379 28.1322 32.6013Z" fill="#0B64FE" style="fill:#0B64FE;fill:color(display-p3 0.0431 0.3922 0.9961);fill-opacity:1;"/>
</svg>
