<svg viewBox="0 0 21 20" fill="none" xmlns="http://www.w3.org/2000/svg">
<title>Wized Finsweet</title>
<mask id="mask0_8692_22337" style="mask-type:luminance" maskUnits="userSpaceOnUse" x="0" y="0" width="21" height="20">
<path d="M18.544 0H1.68582C0.754771 0 0 0.746195 0 1.66667V18.3333C0 19.2538 0.754771 20 1.68582 20H18.544C19.475 20 20.2298 19.2538 20.2298 18.3333V1.66667C20.2298 0.746195 19.475 0 18.544 0Z" fill="white" style="fill:white;fill-opacity:1;"/>
</mask>
<g mask="url(#mask0_8692_22337)">
<path d="M20.2298 0H0V20H20.2298V0Z" fill="#6E30F7" style="fill:#6E30F7;fill:color(display-p3 0.4314 0.1882 0.9686);fill-opacity:1;"/>
<mask id="mask1_8692_22337" style="mask-type:luminance" maskUnits="userSpaceOnUse" x="4" y="4" width="13" height="12">
<path d="M16.3723 4.58594H4.21484V15.0026H16.3723V4.58594Z" fill="white" style="fill:white;fill-opacity:1;"/>
</mask>
<g mask="url(#mask1_8692_22337)">
<path d="M11.4206 8.00346V14.7794C11.4206 14.9039 11.3193 15.0055 11.1952 15.0055H4.44024C4.31613 15.0055 4.21484 14.9039 4.21484 14.7794V11.6163C4.21484 11.4918 4.31613 11.3902 4.44024 11.3902H7.56318C7.70248 11.3902 7.81644 11.2758 7.81644 11.1361V8.00346C7.81644 7.87897 7.91775 7.77734 8.04188 7.77734H11.1952C11.3193 7.77734 11.4206 7.87897 11.4206 8.00346Z" fill="white" style="fill:white;fill-opacity:1;"/>
<path d="M16.3721 4.84003V11.5575C16.3721 11.6973 16.2581 11.8116 16.1188 11.8116H13.0237C12.8844 11.8116 12.7705 11.6973 12.7705 11.5575V4.84003C12.7705 4.69773 12.8844 4.58594 13.0237 4.58594H16.1188C16.2581 4.58594 16.3721 4.69773 16.3721 4.84003Z" fill="white" style="fill:white;fill-opacity:1;"/>
</g>
</g>
</svg>