<svg viewBox="0 0 26 18" fill="none" xmlns="http://www.w3.org/2000/svg">
<title>Xano</title>
<path d="M18.4212 0H25.3207C25.5472 0 25.657 0.277092 25.4919 0.432192L17.5871 7.85984C17.4909 7.95027 17.3409 7.95025 17.2447 7.85981L13.7566 4.58096C13.6515 4.48222 13.6515 4.31535 13.7566 4.21663L18.1136 0.121859C18.1969 0.043579 18.3069 0 18.4212 0Z" fill="white" style="fill:white;"/>
<path d="M18.4414 17.5018H25.3207C25.5472 17.5018 25.657 17.2248 25.4919 17.0697L17.5871 9.64202C17.4909 9.55162 17.3409 9.55162 17.2447 9.64202L13.7566 12.9209C13.6515 13.0196 13.6515 13.1865 13.7566 13.2852L18.099 17.3662C18.1917 17.4533 18.3141 17.5018 18.4414 17.5018Z" fill="white" style="fill:white;"/>
<path d="M7.4723 0.13561C7.37959 0.048496 7.25715 0 7.12993 0H0.250506C0.024018 0 -0.0857451 0.277071 0.0792949 0.432171L8.93081 8.75082L0.079372 17.0682C-0.0856851 17.2233 0.0240729 17.5004 0.250566 17.5004H7.12995C7.25716 17.5004 7.37958 17.4519 7.4723 17.3648L16.4672 8.9145C16.5617 8.8258 16.5617 8.67584 16.4673 8.58714L7.4723 0.13561Z" fill="white" style="fill:white;"/>
</svg>
