<svg width="656" height="656" viewBox="0 0 656 656" fill="none" xmlns="http://www.w3.org/2000/svg">
<rect width="656" height="656" fill="#686A67" style="fill:#686A67;fill:color(display-p3 0.4078 0.4157 0.4039);fill-opacity:1;"/>
<path fill-rule="evenodd" clip-rule="evenodd" d="M460.566 181H194.304L194.304 455.198V474H460.566V455.198V181ZM441.89 455.198H212.98V249.68H392.477V295.421C390.279 296.478 388.254 297.91 386.499 299.677C382.438 303.766 380.156 309.313 380.156 315.096C380.156 320.879 382.438 326.425 386.499 330.514C390.561 334.604 396.07 336.901 401.815 336.901C407.559 336.901 413.068 334.604 417.13 330.514C421.192 326.425 423.474 320.879 423.474 315.096C423.474 309.313 421.192 303.766 417.13 299.677C415.375 297.91 413.35 296.478 411.153 295.421V249.68H441.89V455.198ZM441.89 230.878H212.98V199.802H441.89V230.878Z" fill="#F3F3F3" style="fill:#F3F3F3;fill:color(display-p3 0.9529 0.9529 0.9529);fill-opacity:1;"/>
</svg>
