<?xml version="1.0" encoding="UTF-8" standalone="no"?>
<!DOCTYPE svg PUBLIC "-//W3C//DTD SVG 1.1//EN" "http://www.w3.org/Graphics/SVG/1.1/DTD/svg11.dtd">
<svg width="100%" height="100%" viewBox="0 0 1500 1500" version="1.1" xmlns="http://www.w3.org/2000/svg" xmlns:xlink="http://www.w3.org/1999/xlink" xml:space="preserve" xmlns:serif="http://www.serif.com/" style="fill-rule:evenodd;clip-rule:evenodd;stroke-linejoin:round;stroke-miterlimit:2;">
    <g>
        <g transform="matrix(1.11111,0,0,1.10947,0,0)">
            <rect x="0" y="0" width="1350" height="1352" style="fill:#cee9e1;"/>
        </g>
        <g id="logo-warp-domains.svg" transform="matrix(0.678,0,0,0.678,750,750)">
            <g transform="matrix(1,0,0,1,-500,-337.5)">
                <path d="M499.998,0C504.504,0 513.58,1.989 526.872,15.482C540.295,29.109 554.668,51.379 567.787,82.868C593.925,145.601 611.225,235.604 611.225,337.5C611.225,439.396 593.925,529.399 567.787,592.132C554.668,623.621 540.295,645.891 526.872,659.518C513.58,673.011 504.504,675 499.998,675C495.493,675 486.416,673.011 473.125,659.518C459.701,645.891 445.329,623.621 432.209,592.132C406.072,529.399 388.772,439.396 388.772,337.5C388.772,235.604 406.072,145.601 432.209,82.868C445.329,51.379 459.701,29.109 473.125,15.482C486.416,1.989 495.493,0 499.998,0Z" style="fill:#0b64fe;fill-rule:nonzero;"/>
                <path d="M859.671,571.071C949.866,507.733 1000,424.511 1000,337.5C1000,250.489 949.866,167.267 859.671,103.929C827.316,81.209 790.205,61.406 749.328,45.355C830.319,116.122 881.573,220.757 881.573,337.5C881.573,454.243 830.319,558.878 749.328,629.645C790.205,613.594 827.316,593.791 859.671,571.071Z" style="fill:#0b64fe;fill-rule:nonzero;"/>
                <path d="M118.425,337.5C118.425,454.242 169.678,558.877 250.667,629.644C209.792,613.593 172.683,593.791 140.329,571.071C50.134,507.733 0,424.511 0,337.5C0,250.489 50.134,167.267 140.329,103.929C172.683,81.209 209.792,61.407 250.667,45.356C169.678,116.123 118.425,220.758 118.425,337.5Z" style="fill:#0b64fe;fill-rule:nonzero;"/>
                <path d="M167.988,337.5C167.988,494.763 273.133,625.093 413.909,663.5C369.007,595.049 339.209,474.627 339.209,337.5C339.209,200.374 369.007,79.951 413.909,11.5C273.133,49.907 167.988,180.237 167.988,337.5Z" style="fill:#0b64fe;fill-rule:nonzero;"/>
                <path d="M586.087,663.5C726.864,625.094 832.01,494.763 832.01,337.5C832.01,180.237 726.864,49.907 586.087,11.5C630.989,79.951 660.787,200.373 660.787,337.5C660.787,474.627 630.989,595.049 586.087,663.5Z" style="fill:#0b64fe;fill-rule:nonzero;"/>
            </g>
        </g>
    </g>
</svg>
