<?xml version="1.0" encoding="UTF-8" standalone="no"?>
<!DOCTYPE svg PUBLIC "-//W3C//DTD SVG 1.1//EN" "http://www.w3.org/Graphics/SVG/1.1/DTD/svg11.dtd">
<svg width="100%" height="100%" viewBox="0 0 1500 1500" version="1.1" xmlns="http://www.w3.org/2000/svg" xmlns:xlink="http://www.w3.org/1999/xlink" xml:space="preserve" xmlns:serif="http://www.serif.com/" style="fill-rule:evenodd;clip-rule:evenodd;stroke-linejoin:round;stroke-miterlimit:2;">
    <g>
        <rect x="0" y="0" width="1500" height="1500" style="fill:#0a0a0a;"/>
        <g id="logo-curatyy.svg" transform="matrix(0.359853,0,0,0.359853,750,750)">
            <g transform="matrix(1,0,0,1,-817,-714)">
                <clipPath id="_clip1">
                    <rect x="0" y="0" width="1634" height="1428"/>
                </clipPath>
                <g clip-path="url(#_clip1)">
                    <g transform="matrix(-3.64011e-15,-19.8158,19.8158,-3.64011e-15,-34444,33212.5)">
                        <g>
                            <g>
                                <path d="M1604.02,1770.81L1604.02,1752.68C1604.02,1751.15 1605.2,1749.97 1606.73,1749.97L1613.33,1749.97C1614.86,1749.97 1616.03,1748.79 1616.03,1747.26L1616.03,1740.91C1616.03,1739.38 1617.21,1738.2 1618.74,1738.2L1661.36,1738.2C1662.89,1738.2 1664.07,1739.38 1664.07,1740.91L1664.07,1747.26C1664.07,1748.79 1665.24,1749.97 1666.77,1749.97L1673.37,1749.97C1674.9,1749.97 1676.07,1751.15 1676.07,1752.68L1676.07,1770.81C1676.07,1772.34 1674.9,1773.52 1673.37,1773.52L1666.77,1773.52C1665.24,1773.52 1664.07,1774.69 1664.07,1776.23L1664.07,1782.58C1664.07,1784.11 1665.24,1785.29 1666.77,1785.29L1673.37,1785.29C1674.9,1785.29 1676.07,1786.47 1676.07,1788L1676.07,1806.13C1676.07,1807.66 1674.9,1808.84 1673.37,1808.84L1666.77,1808.84C1665.24,1808.84 1664.07,1810.01 1664.07,1811.54L1664.07,1817.9C1664.07,1819.43 1662.89,1820.61 1661.36,1820.61L1618.74,1820.61C1617.21,1820.61 1616.03,1819.43 1616.03,1817.9L1616.03,1811.54C1616.03,1810.01 1614.86,1808.84 1613.33,1808.84L1606.73,1808.84C1605.2,1808.84 1604.02,1807.66 1604.02,1806.13L1604.02,1788C1604.02,1786.47 1605.2,1785.29 1606.73,1785.29L1613.33,1785.29C1614.86,1785.29 1616.03,1784.11 1616.03,1782.58L1616.03,1776.23C1616.03,1774.69 1614.86,1773.52 1613.33,1773.52L1606.73,1773.52C1605.2,1773.52 1604.02,1772.34 1604.02,1770.81ZM1664.07,1770.81L1664.07,1752.68C1664.07,1751.15 1662.89,1749.97 1661.36,1749.97L1642.51,1749.97L1645.45,1756.44L1653.01,1759.88C1654.7,1760.63 1654.7,1763.05 1653.01,1763.81L1645.45,1767.25L1642.6,1773.52L1661.36,1773.52C1662.89,1773.52 1664.07,1772.34 1664.07,1770.81ZM1637.59,1749.97L1618.74,1749.97C1617.21,1749.97 1616.03,1751.15 1616.03,1752.68L1616.03,1770.81C1616.03,1772.34 1617.21,1773.52 1618.74,1773.52L1637.5,1773.52L1634.65,1767.25L1627.09,1763.81C1625.4,1763.05 1625.4,1760.66 1627.09,1759.88L1634.65,1756.44L1637.59,1749.97ZM1664.07,1806.13L1664.07,1788C1664.07,1786.47 1662.89,1785.29 1661.36,1785.29L1642.62,1785.29L1645.45,1791.53L1653.01,1794.96C1654.7,1795.72 1654.7,1798.14 1653.01,1798.89L1645.45,1802.33L1642.5,1808.84L1661.36,1808.84C1662.89,1808.84 1664.07,1807.66 1664.07,1806.13ZM1616.03,1788L1616.03,1806.13C1616.03,1807.66 1617.21,1808.84 1618.74,1808.84L1637.6,1808.84L1634.65,1802.33L1627.09,1798.89C1625.4,1798.14 1625.4,1795.74 1627.09,1794.96L1634.65,1791.53L1637.48,1785.29L1618.74,1785.29C1617.21,1785.29 1616.03,1786.47 1616.03,1788Z" style="fill:#f3f3f3;"/>
                            </g>
                        </g>
                    </g>
                </g>
            </g>
        </g>
    </g>
</svg>
