<?xml version="1.0" encoding="UTF-8" standalone="no"?>
<!DOCTYPE svg PUBLIC "-//W3C//DTD SVG 1.1//EN" "http://www.w3.org/Graphics/SVG/1.1/DTD/svg11.dtd">
<svg width="100%" height="100%" viewBox="0 0 1500 1500" version="1.1" xmlns="http://www.w3.org/2000/svg" xmlns:xlink="http://www.w3.org/1999/xlink" xml:space="preserve" xmlns:serif="http://www.serif.com/" style="fill-rule:evenodd;clip-rule:evenodd;stroke-linejoin:round;stroke-miterlimit:2;">
    <g>
        <rect x="0" y="0" width="1500" height="1500" style="fill:#00a379;"/>
        <g transform="matrix(0.933439,0,0,0.933439,-1824.15,-832.81)">
            <path d="M2301.7,1695.56C2300.4,1695.56 2299.28,1695.59 2298.37,1695.67C2298.37,1695.67 2299.52,1695.65 2301.7,1695.56ZM2301.7,1695.56C2337.22,1695.65 2513.72,1726.28 2574.16,1759.63C2613.91,1781.56 2661.54,1817.57 2688.27,1817.82C2726.83,1818.18 2738.87,1804.67 2798.62,1767.98C2810.65,1760.6 2857.56,1733.11 2874.07,1732.17C2899.24,1730.75 2904.51,1748.16 2945.75,1764.81C2968.29,1773.9 2987.86,1769.82 3036.7,1742.05C3072.2,1721.88 3102.97,1710.65 3217.03,1695.67C3111.51,1690.66 3049.38,1655.5 3031.4,1644.6C2999.61,1625.33 2966.57,1614.12 2942.78,1629.22C2902.33,1654.87 2888.53,1660.39 2874.26,1659.67C2865.65,1659.23 2848.92,1653.98 2793.12,1620.89C2714.97,1574.55 2712.36,1573.51 2689.43,1573.53C2672.45,1573.54 2639.86,1586.84 2607.82,1610.69C2507.91,1685.05 2328.32,1694.55 2301.7,1695.56Z" style="fill:#fff;"/>
        </g>
    </g>
</svg>
